<svg viewBox="0 0 48 48" xmlns="http://www.w3.org/2000/svg" xmlns:xlink="http://www.w3.org/1999/xlink" width="48" height="48">
<defs>



 <path fill="#5d6b82" id="i-447" d="M36,10H26V6h10V10z M40,2v44H8V2H40z M38,4H10v40h28V4z M13,30c0-6.066,4.935-11,11-11s11,4.934,11,11 c0,6.064-4.935,11-11,11S13,36.064,13,30z M32.375,33.271C31.928,33.418,31.46,33.5,31,33.5c-1.073,0-2.057-0.393-2.77-1.105 c-0.099-0.1-0.201-0.213-0.303-0.344C26.964,33.174,25.477,33.75,24,33.75s-2.964-0.576-3.928-1.699 C19.301,33.037,18.147,33.5,17,33.5c-0.46,0-0.928-0.082-1.375-0.229C16.938,36.619,20.193,39,24,39 C27.808,39,31.063,36.619,32.375,33.271z M15,30c0,0.896,1.034,1.5,2,1.5c0.602,0,2-0.244,2-2.5h2c0,2.17,1.886,2.75,3,2.75 s3-0.58,3-2.75h2c0,2.256,1.398,2.5,2,2.5c0.966,0,2-0.604,2-1.5c0-4.963-4.038-9-9-9C19.038,21,15,25.037,15,30z M14,10 c1.103,0,2-0.898,2-2c0-1.104-0.897-2-2-2s-2,0.896-2,2C12,9.102,12.897,10,14,10z"/> 
</defs>

<use x="0" y="0" xlink:href="#i-447"/>

</svg>